<?xml version="1.0" encoding="UTF-8" standalone="no"?>
<svg xmlns:dc="http://purl.org/dc/elements/1.1/"
  xmlns:cc="http://creativecommons.org/ns#"
  xmlns:rdf="http://www.w3.org/1999/02/22-rdf-syntax-ns#"
  xmlns:svg="http://www.w3.org/2000/svg"
  xmlns="http://www.w3.org/2000/svg"
  xmlns:sodipodi="http://sodipodi.sourceforge.net/DTD/sodipodi-0.dtd"
  xmlns:inkscape="http://www.inkscape.org/namespaces/inkscape" width="619.81641pt" height="126.19923pt" viewBox="0 0 619.81639 126.19923" version="1.1" id="svg96" sodipodi:docname="eli.svg" inkscape:version="1.0.1 (c497b03c, 2020-09-10)">
  <metadata id="metadata102">
    <rdf:RDF>
      <cc:Work rdf:about="">
        <dc:format>image/svg+xml</dc:format>
        <dc:type rdf:resource="http://purl.org/dc/dcmitype/StillImage" />
        <dc:title></dc:title>
      </cc:Work>
    </rdf:RDF>
  </metadata>
  <defs id="defs100" />
  <sodipodi:namedview pagecolor="#ffffff" bordercolor="#666666" borderopacity="1" objecttolerance="10" gridtolerance="10" guidetolerance="10" inkscape:pageopacity="0" inkscape:pageshadow="2" inkscape:window-width="1440" inkscape:window-height="792" id="namedview98" showgrid="false" fit-margin-top="0" fit-margin-left="0" fit-margin-right="0" fit-margin-bottom="0" inkscape:pagecheckerboard="true" inkscape:zoom="0.54069762" inkscape:cx="677.42925" inkscape:cy="431.7943" inkscape:window-x="0" inkscape:window-y="25" inkscape:window-maximized="1" inkscape:current-layer="svg96" />
  <g id="surface1" transform="translate(-111.03516,-234.53906)">
    <path style="fill:#cc171e;fill-opacity:1;fill-rule:nonzero;stroke:none" d="m 138.86328,261.64844 h -27.82812 v -27.10938 h 27.82812 z m 0,0" id="path83" />
    <path style="fill:#ba1419;fill-opacity:1;fill-rule:nonzero;stroke:none" d="m 222.07422,333.05469 v 27.10937 H 111.03516 v -75.64844 h 27.82812 v 48.53907 z m 0,0" id="path85" />
    <path style="fill:#cc171e;fill-opacity:1;fill-rule:nonzero;stroke:none" d="m 222.07422,311.62109 h -61.55078 v -27.10547 h 61.55078 z m 0,0" id="path87" />
    <path style="fill:#eb1923;fill-opacity:1;fill-rule:nonzero;stroke:none" d="m 222.07422,261.64844 h -61.55078 v -27.10938 h 61.55078 z m 0,0" id="path89" />
    <path style="fill:#e8e6e3;fill-opacity:1;fill-rule:nonzero;stroke:none" d="m 290.05859,266.26172 v -4.28125 h -15.14062 v -9.46094 h 12.91406 v -4.23828 h -12.91406 v -9.19531 h 15.14062 v -4.28125 h -19.84765 v 31.45703 z m 29.58203,-10.59766 v -20.85937 h -4.70703 v 20.63672 c 0,4.19921 -2.57422,6.80468 -6.46093,6.80468 -3.88672,0 -6.41797,-2.60547 -6.41797,-6.80468 v -20.63672 h -4.70313 v 20.85937 c 0,6.4961 4.79297,10.86328 11.1211,10.86328 6.32812,0 11.16796,-4.36718 11.16796,-10.86328 m 31.58594,10.59766 -7.14844,-13.91797 c 3.48829,-0.97266 6.19141,-3.83984 6.19141,-8.35156 0,-5.34766 -3.75,-9.1875 -9.64062,-9.1875 h -12.03907 v 31.45703 h 4.70313 v -13.25781 h 5.89453 l 6.54687,13.25781 z m -5.66406,-22.22266 c 0,3.09375 -2.14063,4.90625 -5.28516,4.90625 h -6.98437 v -9.85937 h 6.98437 c 3.14453,0 5.28516,1.85547 5.28516,4.95312 m 34.11328,6.4961 c 0,-6.0586 0.0859,-9.55079 -2.96484,-12.64063 -2.13672,-2.16406 -4.88672,-3.35547 -8.20313,-3.35547 -3.3164,0 -6.02344,1.19141 -8.16015,3.35547 -3.05079,3.08984 -3.00782,6.58203 -3.00782,12.64063 0,6.05468 -0.043,9.54687 3.00782,12.63671 2.13671,2.16407 4.84375,3.35547 8.16015,3.35547 3.31641,0 6.06641,-1.1914 8.20313,-3.35547 3.05078,-3.08984 2.96484,-6.58203 2.96484,-12.63671 m -4.70703,0 c 0,6.32031 -0.30469,8.08593 -1.83594,9.76562 -1.08984,1.19531 -2.79297,1.94531 -4.625,1.94531 -1.83203,0 -3.53515,-0.75 -4.6289,-1.94531 -1.52344,-1.67969 -1.83204,-3.44531 -1.83204,-9.76562 0,-6.32032 0.3086,-8.08985 1.83204,-9.76954 1.09375,-1.1914 2.79687,-1.94531 4.6289,-1.94531 1.83203,0 3.53516,0.75391 4.625,1.94531 1.53125,1.67969 1.83594,3.44922 1.83594,9.76954 m 34.72266,-6.1875 c 0,-5.48047 -3.87891,-9.54297 -9.94532,-9.54297 h -11.77734 v 31.45703 h 4.70703 v -12.3711 h 7.07031 c 6.06641,0 9.94532,-4.0625 9.94532,-9.54296 m -4.70704,0 c 0,3.3164 -2.22656,5.21484 -5.5,5.21484 h -6.80859 v -10.47656 h 6.80859 c 3.27344,0 5.5,1.94531 5.5,5.26172 m 31.58594,21.91406 v -4.28125 h -15.14062 v -9.46094 h 12.91406 v -4.23828 h -12.91406 v -9.19531 h 15.14062 v -4.28125 h -19.84765 v 31.45703 z m 30.62891,0 -11.38672,-31.45703 h -3.79688 l -11.38671,31.45703 h 5.01953 l 2.13672,-6.32031 h 12.25781 l 2.14062,6.32031 z m -8.46485,-10.37891 h -9.55468 l 4.84375,-13.96484 z m 37.5625,10.37891 v -31.45703 h -4.70312 v 22.09375 l -14.35938,-22.09375 h -4.3164 v 31.45703 h 4.70703 v -22.13281 l 14.35937,22.13281 z m 40.88282,0 v -4.28125 h -14.96485 v -27.17578 h -4.70703 v 31.45703 z M 563.75,250.53516 c 0,-6.0586 0.0859,-9.55079 -2.96484,-12.64063 -2.13672,-2.16406 -4.88672,-3.35547 -8.20313,-3.35547 -3.31641,0 -6.02344,1.19141 -8.16016,3.35547 -3.05078,3.08984 -3.00781,6.58203 -3.00781,12.64063 0,6.05468 -0.043,9.54687 3.00781,12.63671 2.13672,2.16407 4.84375,3.35547 8.16016,3.35547 3.31641,0 6.06641,-1.1914 8.20313,-3.35547 3.05078,-3.08984 2.96484,-6.58203 2.96484,-12.63671 m -4.70703,0 c 0,6.32031 -0.30469,8.08593 -1.83203,9.76562 -1.09375,1.19531 -2.79688,1.94531 -4.62891,1.94531 -1.83203,0 -3.53516,-0.75 -4.625,-1.94531 -1.53125,-1.67969 -1.83594,-3.44531 -1.83594,-9.76562 0,-6.32032 0.30469,-8.08985 1.83594,-9.76954 1.08984,-1.1914 2.79297,-1.94531 4.625,-1.94531 1.83203,0 3.53516,0.75391 4.62891,1.94531 1.52734,1.67969 1.83203,3.44922 1.83203,9.76954 m 34.375,3.53125 v -4.8125 h -11.33985 v 4.05859 h 6.63282 v 1.76953 c 0,2.03516 -0.4375,3.62891 -1.57032,4.95313 -1.22265,1.41406 -3.01171,2.21093 -5.0625,2.21093 -1.83593,0 -3.49218,-0.70703 -4.58593,-1.90234 -1.52735,-1.67969 -1.875,-3.49219 -1.875,-9.80859 0,-6.32032 0.34765,-8.08985 1.875,-9.76954 1.09375,-1.1914 2.75,-1.94531 4.58593,-1.94531 3.49219,0 5.76172,2.03516 6.54688,5.48438 h 4.75 c -0.87109,-5.39453 -4.70703,-9.76563 -11.29688,-9.76563 -3.32031,0 -6.02343,1.19141 -8.16015,3.35547 -3.05078,3.09375 -3.00781,6.58594 -3.00781,12.64063 0,6.05078 -0.043,9.54687 3.00781,12.63671 2.13672,2.16407 4.92969,3.35547 8.16015,3.35547 3.27344,0 6.19532,-1.05859 8.55079,-3.57422 2.04687,-2.21093 2.78906,-4.82031 2.78906,-8.88671 M 606.375,234.80469 h -4.70703 v 31.45703 h 4.70703 z m 28.83984,22.49218 c 0,-2.69531 -0.82812,-4.94921 -2.52734,-6.45312 -1.30859,-1.19531 -2.92188,-1.90234 -5.80078,-2.34375 l -3.53516,-0.53125 c -1.4414,-0.21875 -2.70703,-0.75 -3.49219,-1.45703 -0.83203,-0.75 -1.17968,-1.76953 -1.17968,-2.91797 0,-2.78516 2.00781,-4.90625 5.67578,-4.90625 2.61719,0 4.84375,0.57422 6.76172,2.43359 l 3.00781,-3.00781 c -2.65625,-2.51562 -5.53906,-3.57422 -9.64063,-3.57422 -6.45703,0 -10.3789,3.75391 -10.3789,9.23047 0,2.56641 0.73828,4.55469 2.26562,6.01172 1.34766,1.28125 3.35547,2.16797 5.88672,2.51953 l 3.66797,0.53125 c 1.83203,0.26563 2.61719,0.57422 3.40625,1.32813 0.82813,0.75 1.21875,1.89843 1.21875,3.26953 0,3.04687 -2.35547,4.8164 -6.41406,4.8164 -3.1875,0 -5.67578,-0.70703 -7.94141,-3.0039 l -3.13672,3.13672 c 2.96485,3.04687 6.32032,4.14843 10.98828,4.14843 6.50391,0 11.16797,-3.4414 11.16797,-9.23047 m 26.70313,-18.21093 v -4.28125 h -21.8086 v 4.28125 h 8.55079 v 27.17578 h 4.70703 v -27.17578 z m 11.38672,-4.28125 h -4.70703 v 31.45703 h 4.70703 z m 30.53906,22.05078 h -4.75391 c -0.74218,3.17969 -2.8789,5.39062 -6.32422,5.39062 -1.83203,0 -3.49218,-0.70703 -4.58203,-1.89843 -1.52734,-1.67969 -1.875,-3.49219 -1.875,-9.8125 0,-6.32032 0.34766,-8.13282 1.875,-9.8125 1.08985,-1.19532 2.75,-1.90235 4.58203,-1.90235 3.44532,0 5.53907,2.21094 6.28125,5.39453 h 4.79688 c -1.08984,-6.27734 -5.36328,-9.67578 -11.07813,-9.67578 -3.23046,0 -6.02343,1.19141 -8.16015,3.35547 -3.05078,3.08984 -3.00391,6.58203 -3.00391,12.64063 0,6.05468 -0.0469,9.54687 3.00391,12.63671 2.13672,2.16407 4.92969,3.35547 8.16015,3.35547 5.625,0 10.03125,-3.39843 11.07813,-9.67187 m 27.00781,0.4414 c 0,-2.69531 -0.82812,-4.94921 -2.52734,-6.45312 -1.30469,-1.19531 -2.91797,-1.90234 -5.80078,-2.34375 l -3.53516,-0.53125 c -1.44141,-0.21875 -2.70703,-0.75 -3.49219,-1.45703 -0.83203,-0.75 -1.17968,-1.76953 -1.17968,-2.91797 0,-2.78516 2.00781,-4.90625 5.67578,-4.90625 2.61718,0 4.84375,0.57422 6.76562,2.43359 l 3.00781,-3.00781 c -2.66015,-2.51562 -5.53906,-3.57422 -9.64453,-3.57422 -6.45703,0 -10.3789,3.75391 -10.3789,9.23047 0,2.56641 0.73828,4.55469 2.26562,6.01172 1.35156,1.28125 3.35547,2.16797 5.89063,2.51953 l 3.66406,0.53125 c 1.83594,0.26563 2.62109,0.57422 3.40625,1.32813 0.82812,0.75 1.22266,1.89843 1.22266,3.26953 0,3.04687 -2.35938,4.8164 -6.41797,4.8164 -3.1875,0 -5.67578,-0.70703 -7.94141,-3.0039 l -3.13672,3.13672 c 2.96485,3.04687 6.32031,4.14843 10.99219,4.14843 6.50391,0 11.16406,-3.4414 11.16406,-9.23047" id="path91" />
    <path style="fill:#e8e6e3;fill-opacity:1;fill-rule:nonzero;stroke:none" d="m 280.41016,292.05078 h -10.19922 v 68.10938 h 10.19922 z m 55.25781,68.11328 v -30.99609 c 0,-5.45313 -1.13672,-10.04688 -4.82031,-13.67969 -2.83204,-2.77344 -6.89454,-4.40234 -11.80469,-4.40234 -4.81641,0 -9.44531,1.82031 -12.75,5.45312 v -4.8789 h -9.44531 v 48.5039 h 9.63281 v -29.5625 c 0,-7.46094 4.53515,-10.80859 9.91797,-10.80859 5.38281,0 9.63281,3.2539 9.63281,10.80859 v 29.5625 z m 50.90625,-48.5039 H 376.375 l -11.23828,34.15234 -11.33594,-34.15234 h -10.19922 l 17.56641,48.5039 h 7.83984 z m 45.62109,27.07421 v -4.30468 c 0,-13.77735 -7.46094,-23.34375 -20.30859,-23.34375 -12.27735,0 -20.30469,9.08984 -20.30469,24.77734 0,18.46484 9.53906,24.875 21.53516,24.875 8.40625,0 13.03515,-2.58594 17.94531,-7.55859 l -6.14063,-5.83594 c -3.39843,3.44531 -6.23437,4.97266 -11.61718,4.97266 -7.83985,0 -12.1836,-5.25782 -12.1836,-13.58204 z m -9.53906,-6.79296 h -21.53516 c 0.0937,-2.96485 0.28125,-4.40235 1.22657,-6.60157 1.51171,-3.63281 5.00781,-6.12109 9.53906,-6.12109 4.53515,0 7.9375,2.48828 9.44922,6.12109 0.9414,2.19922 1.22656,3.63672 1.32031,6.60157 m 57.71094,13.39453 c 0,-8.60938 -5.28907,-12.91407 -14.26172,-13.67969 l -7.5586,-0.67188 c -5.10156,-0.47656 -6.60937,-2.67578 -6.60937,-5.54687 0,-3.63672 2.92578,-6.21875 8.6875,-6.21875 4.53516,0 8.78516,0.95703 11.80859,3.53906 l 6.04297,-6.21875 c -4.4375,-3.92187 -10.57812,-5.45312 -17.75781,-5.45312 -10.01172,0 -18.03906,5.35937 -18.03906,14.82812 0,8.51563 5.19531,12.62891 14.16797,13.39453 l 7.64843,0.66797 c 4.62891,0.38281 6.42578,2.48828 6.42578,5.74219 0,4.58984 -4.6289,6.69531 -10.48437,6.69531 -4.72266,0 -9.91797,-1.05078 -13.79297,-5.07031 l -6.32812,6.41016 c 5.66796,5.64453 12.28125,6.98437 20.12109,6.98437 11.42578,0 19.92969,-5.26172 19.92969,-15.40234 m 30.78906,14.82812 v -8.32422 h -3.96875 c -3.58594,0 -5.28906,-2.10547 -5.28906,-5.64453 v -26.21094 h 9.25781 v -7.46093 h -9.25781 v -14.73438 h -9.63282 v 14.73438 h -5.48046 v 7.46093 h 5.48046 v 26.69141 c 0,6.98047 4.15625,13.48828 13.12891,13.48828 z m 80.28516,0 v -30.99609 c 0,-5.45313 -1.41797,-10.04688 -5.10157,-13.67969 -2.83203,-2.77344 -7.17578,-4.40234 -12.08984,-4.40234 -6.32813,0 -11.14453,2.29687 -15.01563,7.07812 -3.02343,-4.68359 -7.65234,-7.07812 -13.60156,-7.07812 -4.82031,0 -9.53906,1.91406 -12.7539,5.45312 v -4.8789 h -9.44532 v 48.5039 h 9.63672 v -29.5625 c 0,-7.46094 4.53125,-10.80859 9.91797,-10.80859 5.38281,0 9.63281,3.2539 9.63281,10.80859 v 29.5625 h 9.63282 V 330.125 c 0,-6.98438 4.72265,-10.33203 9.91796,-10.33203 5.38672,0 9.63672,3.2539 9.63672,10.80859 v 29.5625 z m 52.98828,-21.42969 v -4.30468 c 0,-13.77735 -7.46094,-23.34375 -20.3086,-23.34375 -12.27734,0 -20.30468,9.08984 -20.30468,24.77734 0,18.46484 9.53906,24.875 21.53515,24.875 8.40625,0 13.03516,-2.58594 17.94531,-7.55859 l -6.14062,-5.83594 c -3.39844,3.44531 -6.23438,4.97266 -11.61719,4.97266 -7.83984,0 -12.18359,-5.25782 -12.18359,-13.58204 z m -9.53907,-6.79296 h -21.53515 c 0.0937,-2.96485 0.28125,-4.40235 1.22656,-6.60157 1.51172,-3.63281 5.00781,-6.12109 9.53906,-6.12109 4.53516,0 7.9336,2.48828 9.44532,6.12109 0.94531,2.19922 1.23046,3.63672 1.32421,6.60157 M 696,360.16406 v -30.99609 c 0,-5.45313 -1.13281,-10.04688 -4.81641,-13.67969 -2.83203,-2.77344 -6.89453,-4.40234 -11.80859,-4.40234 -4.81641,0 -9.44531,1.82031 -12.75,5.45312 v -4.8789 h -9.44531 v 48.5039 h 9.63281 v -29.5625 c 0,-7.46094 4.53516,-10.80859 9.91797,-10.80859 5.38672,0 9.63672,3.2539 9.63672,10.80859 v 29.5625 z m 34.85156,0 v -8.32422 h -3.96484 c -3.58985,0 -5.28906,-2.10547 -5.28906,-5.64453 v -26.21094 h 9.2539 v -7.46093 h -9.2539 v -14.73438 h -9.63672 v 14.73438 h -5.47657 v 7.46093 h 5.47657 v 26.69141 c 0,6.98047 4.15625,13.48828 13.1289,13.48828 z m 0,0" id="path93" />
  </g>
</svg>
